<svg width="150" height="150" viewBox="0 0 150 150" fill="none" xmlns="http://www.w3.org/2000/svg">
<g id="Frame">
<path id="Vector" d="M75 106.25C76.7708 106.25 78.2562 105.65 79.4563 104.45C80.6562 103.25 81.2542 101.767 81.25 100C81.25 98.2292 80.65 96.7438 79.45 95.5437C78.25 94.3438 76.7667 93.7458 75 93.75C73.2292 93.75 71.7437 94.35 70.5437 95.55C69.3438 96.75 68.7458 98.2333 68.75 100C68.75 101.771 69.35 103.256 70.55 104.456C71.75 105.656 73.2333 106.254 75 106.25ZM68.75 81.25H81.25V43.75H68.75V81.25ZM75 137.5C66.3542 137.5 58.2292 135.858 50.625 132.575C43.0208 129.292 36.4063 124.84 30.7813 119.219C25.1563 113.594 20.7042 106.979 17.425 99.375C14.1458 91.7708 12.5042 83.6458 12.5 75C12.5 66.3542 14.1417 58.2292 17.425 50.625C20.7083 43.0208 25.1604 36.4063 30.7813 30.7813C36.4063 25.1563 43.0208 20.7042 50.625 17.425C58.2292 14.1458 66.3542 12.5042 75 12.5C83.6458 12.5 91.7708 14.1417 99.375 17.425C106.979 20.7083 113.594 25.1604 119.219 30.7813C124.844 36.4063 129.298 43.0208 132.581 50.625C135.865 58.2292 137.504 66.3542 137.5 75C137.5 83.6458 135.858 91.7708 132.575 99.375C129.292 106.979 124.84 113.594 119.219 119.219C113.594 124.844 106.979 129.298 99.375 132.581C91.7708 135.865 83.6458 137.504 75 137.5Z" fill="#C4161C"/>
</g>
</svg>
